# xmcd
# 
# Track frame offsets:
#     150
#     13441
#     29105
#     44154
#     64571
#     78954
#     94632
#     112133
#     127479
#     149278
#     164287
#     180559
# 
# Disc length: 2692
# 
# Revision: 1
# Processed by: cddbd v1.5.2PL0 Copyright (c) Steve Scherf et al.
# Submitted via: fre:ac v1.0.17
# 
DISCID=b30a820c
DTITLE=Garou - Rhythm And Blues
DYEAR=2012
DGENRE=Blues
TTITLE0=Quand Tu Danses
TTITLE1=Little Green Bag
TTITLE2=Le jour se lève
TTITLE3=Marie-Jeanne
TTITLE4=I Put A Shell On You
TTITLE5=Hard To Handle
TTITLE6=If I Ain't Got You
TTITLE7=Lonely Boy
TTITLE8=Cash City
TTITLE9=Sur La Route
TTITLE10=Bad Day
TTITLE11=Je Voudrais Voir New York
EXTD=
EXTT0=
EXTT1=
EXTT2=
EXTT3=
EXTT4=
EXTT5=
EXTT6=
EXTT7=
EXTT8=
EXTT9=
EXTT10=
EXTT11=
PLAYORDER=
